:SAMPLES-PER-SECOND 30
:FRAME-RANGE 1-4244
:FULLY-SPECIFIED
:DEGREES
1990
root  -51.8459 38.0468 1.45887 12.0156 67.5238 0.130005
RightUpLeg  -6.8276 -12.588 10.1201
RightLeg  36.8101 -3.31307 -2.92129
RightFoot  -23.4442 1.32554 13.9492
RightToes  -1.33073e-015 0 -3.6325e-017
Spine  6.82752 2.01179 -4.38783
Spine1  5.95075 3.97017 -9.19713
HEad  2.11998 -11.2561 -10.094
LeftShoulder1  1.39111 -2.37491 -18.1481
LeftArm  -5.32695 8.07762 -37.6808
LeftForeArm  29.5817 7.61842 -11.0588
LeftHand  -0.0389195 4.78076 3.01823
RightShoulder  2.36319 7.31746 15.6008
RightArm  39.86 34.0951 94.8644
RightForeArm  35.6501 21.3924 4.49513
RightHand  0.553583 -9.51476 -16.1684
LeftUpLeg  -36.475 -3.6164 3.73506
LeftLeg  22.4742 -3.31758 -1.17491
LeftFoot  -2.73405 0.788506 -10.2409
LeftToes  2.72522e-012 8.43823e-011 6.24977e-012
1991
root  -52.4329 37.7571 0.561617 14.2047 64.997 3.41394
RightUpLeg  -2.31199 -12.6972 9.43988
RightLeg  33.5964 -5.29233 -4.02268
RightFoot  -23.7021 1.14794 12.0518
RightToes  -1.33073e-015 0 -3.6325e-017
Spine  4.9693 2.89617 -3.41736
Spine1  7.07515 5.21842 -9.88545
HEad  1.05478 -10.641 -10.2228
LeftShoulder1  1.27804 -1.99052 -17.7593
LeftArm  -5.94247 11.7309 -37.6524
LeftForeArm  27.2885 7.49786 -10.7705
LeftHand  -0.0469767 4.41996 3.08469
RightShoulder  2.3425 7.50062 14.9781
RightArm  41.6754 35.4887 97.858
RightForeArm  36.046 20.7921 4.99666
RightHand  0.532668 -9.33031 -16.2943
LeftUpLeg  -37.2246 -2.53634 1.25969
LeftLeg  23.2063 -2.15812 -0.682286
LeftFoot  -1.95151 0.800755 -9.59272
LeftToes  2.72522e-012 8.43823e-011 6.24977e-012
1992
root  -53.066 37.439 -0.409584 15.4978 61.5302 5.90619
RightUpLeg  0.981519 -10.4848 7.99784
RightLeg  30.4305 -7.35308 -4.88201
RightFoot  -21.3016 0.717979 9.87981
RightToes  -1.33073e-015 0 -3.6325e-017
Spine  3.51354 3.69918 -2.24922
Spine1  7.67183 6.37698 -10.806
HEad  0.803712 -9.41184 -10.3709
LeftShoulder1  1.17527 -1.58091 -17.6701
LeftArm  -6.30691 14.8932 -37.5563
LeftForeArm  25.2121 7.45864 -10.5949
LeftHand  -0.0522648 4.08737 2.90342
RightShoulder  2.29488 7.47843 14.5408
RightArm  40.4464 35.5548 99.6544
RightForeArm  38.2827 19.6417 5.9487
RightHand  0.527211 -9.375 -15.9758
LeftUpLeg  -37.9015 -1.27816 -0.978853
LeftLeg  23.702 -0.444542 0.117871
LeftFoot  -1.02667 0.86618 -9.51409
LeftToes  2.72522e-012 8.43823e-011 6.24977e-012
1993
root  -53.811 37.1061 -1.53583 15.7726 57.4716 7.92603
RightUpLeg  3.44974 -7.51748 5.69135
RightLeg  26.8838 -8.2208 -4.7322
RightFoot  -25.6445 0.553556 5.79601
RightToes  -1.33073e-015 0 -3.6325e-017
Spine  3.09678 4.11777 -1.15849
Spine1  8.08288 7.14095 -11.751
HEad  1.035 -7.11468 -11.5262
LeftShoulder1  1.0487 -0.947423 -18.3234
LeftArm  -6.7566 17.1431 -37.5264
LeftForeArm  25.0226 7.57527 -10.4692
LeftHand  -0.0527771 4.11256 3.00371
RightShoulder  2.31699 7.49136 14.7384
RightArm  36.9964 34.8304 99.8134
RightForeArm  41.9503 17.6593 7.62234
RightHand  0.517224 -9.30119 -15.978
LeftUpLeg  -38.2117 0.0300185 -3.16345
LeftLeg  23.6354 1.81167 1.20017
LeftFoot  1.04821 0.92694 -8.58836
LeftToes  2.72522e-012 8.43823e-011 6.24977e-012
1994
root  -54.623 36.8388 -2.76928 13.9742 53.6412 8.07458
RightUpLeg  4.06336 -6.28672 3.60513
RightLeg  26.192 -8.50823 -4.75405
RightFoot  -30.2745 0.392329 3.58716
RightToes  -1.33073e-015 0 -3.6325e-017
Spine  3.66588 4.08076 0.462792
Spine1  8.03145 7.13421 -11.8303
HEad  1.92514 -3.82814 -13.3591
LeftShoulder1  0.915008 -0.271602 -19.3132
LeftArm  -7.31121 18.4406 -38.3179
LeftForeArm  25.8411 7.57283 -10.5024
LeftHand  -0.0507594 4.30328 3.23488
RightShoulder  2.37754 7.44177 15.4662
RightArm  31.9842 33.5257 97.9558
RightForeArm  46.4695 14.7804 9.83815
RightHand  0.543968 -9.38222 -16.405
LeftUpLeg  -38.008 1.28439 -4.1035
LeftLeg  23.0168 4.41502 2.38563
LeftFoot  2.97972 1.00716 -8.15223
LeftToes  2.72522e-012 8.43823e-011 6.24977e-012
1995
root  -55.3973 36.718 -3.889 11.4095 51.111 6.96857
RightUpLeg  4.6866 -5.44302 2.87701
RightLeg  24.4535 -8.5203 -4.43227
RightFoot  -32.8509 0.123409 1.82774
RightToes  -1.33073e-015 0 -3.6325e-017
Spine  3.37137 3.66995 1.59577
Spine1  8.81361 6.32591 -9.99199
HEad  3.24435 -0.428516 -14.8792
LeftShoulder1  0.747388 0.450808 -19.9559
LeftArm  -9.40159 18.8432 -40.6669
LeftForeArm  27.8936 7.47621 -10.0289
LeftHand  -0.0380965 4.84328 3.14933
RightShoulder  2.41729 7.20394 16.4268
RightArm  22.6256 31.671 93.923
RightForeArm  54.0714 10.5829 12.0069
RightHand  0.575684 -9.55119 -16.6142
LeftUpLeg  -37.6358 2.82886 -4.01363
LeftLeg  22.3125 5.95053 3.00729
LeftFoot  1.7609 1.17937 -10.3427
LeftToes  2.72522e-012 8.43823e-011 6.24977e-012
1996
root  -56.0977 36.8057 -4.87598 8.62558 49.2883 4.57507
RightUpLeg  3.74299 -5.50976 3.34153
RightLeg  24.2217 -7.47614 -3.88657
RightFoot  -33.0422 -0.108788 0.606546
RightToes  -1.33073e-015 0 -3.6325e-017
Spine  2.64601 3.18037 3.52449
Spine1  9.01391 5.30134 -8.11464
HEad  4.77542 2.71357 -14.9219
LeftShoulder1  0.710745 0.572998 -19.7728
LeftArm  -10.4408 19.0183 -43.864
LeftForeArm  27.7093 7.46813 -9.9649
LeftHand  -0.0313391 5.14883 3.15191
RightShoulder  2.46804 6.81141 17.9428
RightArm  9.44332 29.2817 87.7216
RightForeArm  62.9179 4.90136 13.0142
RightHand  0.619024 -9.69059 -17.2081
LeftUpLeg  -37.2448 4.94515 -3.16767
LeftLeg  20.7915 6.56029 3.06982
LeftFoot  -0.912776 1.07062 -11.6421
LeftToes  2.72522e-012 8.43823e-011 6.24977e-012
1997
root  -56.753 37.0781 -5.72675 5.66962 48.3247 2.33759
RightUpLeg  3.01184 -5.928 3.89527
RightLeg  24.4669 -5.53496 -2.97227
RightFoot  -31.4167 -0.23563 -0.124047
RightToes  -1.33073e-015 0 -3.6325e-017
Spine  2.60478 2.45092 4.46096
Spine1  9.28458 3.95235 -5.92597
HEad  5.98684 5.36307 -13.785
LeftShoulder1  0.76913 0.340349 -19.6966
LeftArm  -11.3606 18.2413 -46.7394
LeftForeArm  27.7454 7.44865 -9.84489
LeftHand  -0.0331002 5.05924 3.02965
RightShoulder  2.54731 6.27267 20.3159
RightArm  -1.79995 26.2394 79.8095
RightForeArm  67.6368 -0.933575 11.7823
RightHand  0.614844 -9.47348 -17.9471
LeftUpLeg  -35.7086 5.1135 -1.32516
LeftLeg  18.8708 9.48737 3.91153
LeftFoot  -0.861117 1.11971 -12.1185
LeftToes  2.72522e-012 8.43823e-011 6.24977e-012
1998
root  -57.3136 37.437 -6.36878 5.41302 47.491 2.5401
RightUpLeg  2.13193 -8.1532 2.64244
RightLeg  23.894 -2.56378 -1.4687
RightFoot  -29.5079 -0.366077 -1.03627
RightToes  -1.33073e-015 0 -3.6325e-017
Spine  1.68033 2.00116 2.86662
Spine1  9.31526 2.78687 -3.43194
HEad  7.46456 7.1384 -11.4259
LeftShoulder1  0.872908 -0.239877 -18.2794
LeftArm  -12.3943 17.4277 -50.3567
LeftForeArm  29.2238 7.39197 -9.59822
LeftHand  -0.033562 5.03548 3.01052
RightShoulder  2.47262 5.54424 21.7487
RightArm  -11.0474 21.8989 72.6177
RightForeArm  67.9945 -5.85536 7.95276
RightHand  0.645154 -9.5604 -18.3858
LeftUpLeg  -35.0169 3.74624 -0.541594
LeftLeg  20.1915 11.0426 4.78145
LeftFoot  -0.638732 1.01137 -10.7339
LeftToes  2.72522e-012 8.43823e-011 6.24977e-012
1999
root  -57.7521 37.8123 -6.88204 5.35571 46.3965 2.76721
RightUpLeg  1.68662 -5.65528 2.78695
RightLeg  22.4617 -3.88882 -1.98395
RightFoot  -27.2961 -0.263087 -0.556154
RightToes  -1.33073e-015 0 -3.6325e-017
Spine  0.835977 1.44704 2.43651
Spine1  8.82314 1.98923 -2.59025
HEad  8.46197 9.03348 -8.54556
LeftShoulder1  0.917593 -0.575173 -17.224
LeftArm  -12.1408 16.6994 -51.9743
LeftForeArm  31.3029 7.34374 -9.46746
LeftHand  -0.0388267 4.77775 2.98176
RightShoulder  2.41036 4.96533 23.0216
RightArm  -20.08 17.858 65.3374
RightForeArm  67.8353 -5.49833 4.17747
RightHand  0.624442 -9.59686 -17.7043
LeftUpLeg  -34.5652 1.83419 0.533416
LeftLeg  24.9907 8.32369 4.53898
LeftFoot  -1.4897 0.916706 -10.512
LeftToes  2.72522e-012 8.43823e-011 6.24977e-012
2000
root  -58.1169 38.0273 -7.39344 5.40643 44.9235 3.06909
RightUpLeg  0.878834 -5.95312 1.81995
RightLeg  22.0188 -2.0662 -1.08204
RightFoot  -26.1458 -0.346878 -1.30581
RightToes  -1.33073e-015 0 -3.6325e-017
Spine  0.580489 0.864521 2.78009
Spine1  7.91885 1.485 -2.78507
HEad  8.53136 11.2118 -6.41618
LeftShoulder1  0.940271 -0.702803 -17.0214
LeftArm  -10.2574 15.6436 -51.6473
LeftForeArm  33.5305 4.86356 -9.99142
LeftHand  -0.0492502 4.34038 3.15354
RightShoulder  2.30201 4.41511 23.726
RightArm  -28.5898 13.7473 58.4214
RightForeArm  66.2969 -4.85853 0.0361517
RightHand  0.625077 -9.65373 -17.5006
LeftUpLeg  -34.3508 -0.00205214 1.33032
LeftLeg  32.3016 4.12849 3.15408
LeftFoot  -3.18964 0.800535 -10.942
LeftToes  2.72522e-012 8.43823e-011 6.24977e-012
2001
root  -58.4262 38.185 -7.91206 5.22873 42.6886 2.87927
RightUpLeg  -0.266254 -5.39889 1.30577
RightLeg  22.049 -0.407337 -0.337789
RightFoot  -25.0832 -0.32464 -1.28377
RightToes  -1.33073e-015 0 -3.6325e-017
Spine  0.377097 0.521091 3.93443
Spine1  7.39197 1.34738 -3.20341
HEad  7.17213 13.733 -5.8072
LeftShoulder1  0.859925 -0.340032 -17.1613
LeftArm  -8.29296 13.6584 -50.8875
LeftForeArm  35.8995 1.52293 -10.5467
LeftHand  -0.0581821 4.28131 4.03565
RightShoulder  2.1532 3.92637 23.6708
RightArm  -34.5077 9.72967 51.6713
RightForeArm  62.0968 -4.50332 -2.89496
RightHand  0.612973 -9.66214 -17.1611
LeftUpLeg  -33.3979 -0.789017 1.92152
LeftLeg  39.4894 1.79594 1.95741
LeftFoot  -5.14903 0.680824 -11.9837
LeftToes  2.72522e-012 8.43823e-011 6.24977e-012
